<svg width="23" height="23" viewBox="0 0 23 23" fill="none" xmlns="http://www.w3.org/2000/svg">
    <path fill-rule="evenodd" clip-rule="evenodd"
        d="M11.2743 19.8619C9.22424 18.6002 7.31714 17.1153 5.58709 15.4338C4.37078 14.2227 3.44482 12.7465 2.88013 11.1179C1.86394 7.95863 3.05091 4.3419 6.3727 3.27155C8.1185 2.70952 10.0251 3.03074 11.4963 4.13473C12.9679 3.03209 14.874 2.71098 16.6199 3.27155C19.9417 4.3419 21.1372 7.95863 20.121 11.1179C19.5563 12.7465 18.6303 14.2227 17.414 15.4338C15.684 17.1153 13.7768 18.6002 11.7268 19.8619L11.5048 20L11.2743 19.8619Z"
        stroke="#9DA2AA" stroke-width="1.5" stroke-linecap="round" stroke-linejoin="round" />
    <path d="M15.0316 6.82788C16.0377 7.14928 16.7525 8.05254 16.8419 9.11531" stroke="#9DA2AA"
        stroke-width="1.5" stroke-linecap="round" stroke-linejoin="round" />
</svg>
