<svg width="23" height="23" viewBox="0 0 23 23" fill="none" xmlns="http://www.w3.org/2000/svg">
    <path
        d="M11.0964 11.5538C13.6253 11.5538 15.6754 9.5037 15.6754 6.97482C15.6754 4.44594 13.6253 2.39587 11.0964 2.39587C8.56757 2.39587 6.5175 4.44594 6.5175 6.97482C6.5175 9.5037 8.56757 11.5538 11.0964 11.5538Z"
        stroke="#9DA2AA" stroke-width="1.5" stroke-linecap="round" stroke-linejoin="round" />
    <path fill-rule="evenodd" clip-rule="evenodd"
        d="M3.83336 17.9221C3.83212 17.6002 3.90411 17.2822 4.04389 16.9922C4.48248 16.1151 5.71932 15.6502 6.74564 15.4397C7.48582 15.2817 8.23622 15.1761 8.99125 15.1239C10.3891 15.001 11.7951 15.001 13.193 15.1239C13.948 15.1768 14.6983 15.2823 15.4387 15.4397C16.4649 15.6502 17.7018 16.0712 18.1404 16.9922C18.4215 17.5833 18.4215 18.2696 18.1404 18.8607C17.7018 19.7818 16.4649 20.2028 15.4387 20.4046C14.6993 20.569 13.9486 20.6775 13.193 20.7291C12.0553 20.8256 10.9122 20.8431 9.77194 20.7818C9.50879 20.7818 9.25441 20.7818 8.99125 20.7291C8.23844 20.6782 7.49065 20.5697 6.75441 20.4046C5.71932 20.2028 4.49125 19.7818 4.04389 18.8607C3.90483 18.5674 3.83291 18.2467 3.83336 17.9221Z"
        stroke="#9DA2AA" stroke-width="1.5" stroke-linecap="round" stroke-linejoin="round" />
</svg>
